<svg version="1.1" viewBox="0.0 0.0 500.0 500.0" fill="none" stroke="none" stroke-linecap="square" stroke-miterlimit="10" xmlns:xlink="http://www.w3.org/1999/xlink" xmlns="http://www.w3.org/2000/svg"><clipPath id="p.0"><path d="m0 0l500.0 0l0 500.0l-500.0 0l0 -500.0z" clip-rule="nonzero"/></clipPath><g clip-path="url(#p.0)"><path fill="#000000" fill-opacity="0.0" d="m0 0l500.0 0l0 500.0l-500.0 0z" fill-rule="evenodd"/><path fill="#ff9f1c" d="m82.0 58.0l336.0 192.77568l-336.0 191.22432z" fill-rule="evenodd"/><path stroke="#ff9f1c" stroke-width="24.0" stroke-linejoin="round" stroke-linecap="butt" d="m82.0 58.0l336.0 192.77568l-336.0 191.22432z" fill-rule="evenodd"/><g filter="url(#shadowFilter-p.1)"><use xlink:href="#p.1" transform="matrix(1.0 0.0 0.0 1.0 0.0 2.0)"/></g><defs><filter id="shadowFilter-p.1" filterUnits="userSpaceOnUse"><feGaussianBlur in="SourceAlpha" stdDeviation="2.0" result="blur"/><feComponentTransfer in="blur" color-interpolation-filters="sRGB"><feFuncR type="linear" slope="0" intercept="0.0"/><feFuncG type="linear" slope="0" intercept="0.0"/><feFuncB type="linear" slope="0" intercept="0.0"/><feFuncA type="linear" slope="0.5" intercept="0"/></feComponentTransfer></filter></defs><g id="p.1"><path fill="#ff9f1c" d="m131.45932 142.47244l187.27557 110.801025l-187.27557 110.30133z" fill-rule="evenodd"/><path stroke="#202124" stroke-width="24.0" stroke-linejoin="round" stroke-linecap="butt" d="m131.45932 142.47244l187.27557 110.801025l-187.27557 110.30133z" fill-rule="evenodd"/></g><path fill="#ff9f1c" d="m147.4672 167.70079l148.6929 83.85838l-148.6929 83.480194z" fill-rule="evenodd"/><path stroke="#202124" stroke-width="24.0" stroke-linejoin="round" stroke-linecap="butt" d="m147.4672 167.70079l148.6929 83.85838l-148.6929 83.480194z" fill-rule="evenodd"/></g></svg>